<svg class="animated" id="freepik_stories-travel-insurance" xmlns="http://www.w3.org/2000/svg" viewBox="0 0 500 500" version="1.1" xmlns:xlink="http://www.w3.org/1999/xlink" xmlns:svgjs="http://svgjs.com/svgjs"><style>svg#freepik_stories-travel-insurance:not(.animated) .animable {opacity: 0;}svg#freepik_stories-travel-insurance.animated #freepik--Clipboard--inject-16 {animation: 1.5s Infinite  linear floating;animation-delay: 0s;}svg#freepik_stories-travel-insurance.animated #freepik--Character--inject-16 {animation: 1.6s 1 forwards cubic-bezier(.36,-0.01,.5,1.38) slideDown;animation-delay: 0s;}            @keyframes floating {                0% {                    opacity: 1;                    transform: translateY(0px);                }                50% {                    transform: translateY(-10px);                }                100% {                    opacity: 1;                    transform: translateY(0px);                }            }                    @keyframes slideDown {                0% {                    opacity: 0;                    transform: translateY(-30px);                }                100% {                    opacity: 1;                    transform: translateY(0);                }            }        </style><g id="freepik--background-complete--inject-16" class="animable" style="transform-origin: 250px 245.285px;"><path d="M443.92,331.29H263.17a5.87,5.87,0,0,1-5.86-5.86V62.16a5.87,5.87,0,0,1,5.86-5.86H443.92a5.87,5.87,0,0,1,5.86,5.86V325.43A5.87,5.87,0,0,1,443.92,331.29ZM263.17,56.55a5.61,5.61,0,0,0-5.61,5.61V325.43a5.61,5.61,0,0,0,5.61,5.61H443.92a5.61,5.61,0,0,0,5.61-5.61V62.16a5.61,5.61,0,0,0-5.61-5.61Z" style="fill: rgb(224, 224, 224); transform-origin: 353.545px 193.795px;" id="elnkj5w1ybohd" class="animable"></path><path d="M235.49,331.29H54.75a5.87,5.87,0,0,1-5.87-5.86V62.16a5.87,5.87,0,0,1,5.87-5.86H235.49a5.86,5.86,0,0,1,5.86,5.86V325.43A5.86,5.86,0,0,1,235.49,331.29ZM54.75,56.55a5.62,5.62,0,0,0-5.62,5.61V325.43A5.62,5.62,0,0,0,54.75,331H235.49a5.61,5.61,0,0,0,5.61-5.61V62.16a5.61,5.61,0,0,0-5.61-5.61Z" style="fill: rgb(224, 224, 224); transform-origin: 145.115px 193.795px;" id="elqjmwwiy3z29" class="animable"></path><rect y="392.36" width="500" height="0.25" style="fill: rgb(224, 224, 224); transform-origin: 250px 392.485px;" id="elirxwyud9oj" class="animable"></rect><rect x="167.6" y="403.11" width="53.53" height="0.25" style="fill: rgb(224, 224, 224); transform-origin: 194.365px 403.235px;" id="el5qvm7osjdjk" class="animable"></rect><rect x="65.98" y="415.11" width="36.25" height="0.25" style="fill: rgb(224, 224, 224); transform-origin: 84.105px 415.235px;" id="eld0xzghcverc" class="animable"></rect><rect x="375.59" y="402.98" width="43.19" height="0.25" style="fill: rgb(224, 224, 224); transform-origin: 397.185px 403.105px;" id="elg06qmt7i4y" class="animable"></rect><rect x="427.69" y="402.98" width="6.33" height="0.25" style="fill: rgb(224, 224, 224); transform-origin: 430.855px 403.105px;" id="elm1k1pbnd0g" class="animable"></rect><rect x="313.45" y="409.21" width="53.89" height="0.25" style="fill: rgb(224, 224, 224); transform-origin: 340.395px 409.335px;" id="el3innq8xf5fz" class="animable"></rect><rect x="52.46" y="405.53" width="16.06" height="0.25" style="fill: rgb(224, 224, 224); transform-origin: 60.49px 405.655px;" id="elsueix5bvom" class="animable"></rect><path d="M129.05,148.61,84.9,131.79,40.75,148.61c-.84,1.68,0,72.74,44.15,88.72C129.05,221.35,129.89,150.29,129.05,148.61Z" style="fill: rgb(224, 224, 224); transform-origin: 84.9px 184.56px;" id="elz1u4aq2b9as" class="animable"></path><path d="M121.52,154.74l-36.62-14-36.62,14c-.7,1.39,0,60.34,36.62,73.6C121.52,215.08,122.22,156.13,121.52,154.74Z" style="fill: rgb(240, 240, 240); transform-origin: 84.9px 184.54px;" id="el8rq6ijts76" class="animable"></path><polygon points="85.44 198.35 68.14 184.9 72.84 178.86 84.44 187.88 101.03 168.91 106.79 173.94 85.44 198.35" style="fill: rgb(255, 255, 255); transform-origin: 87.465px 183.63px;" id="ell7oay6j284s" class="animable"></polygon><polygon points="47.95 464.31 81.46 464.31 88.03 391.97 41.38 391.97 47.95 464.31" style="fill: rgb(224, 224, 224); transform-origin: 64.705px 428.14px;" id="el7ct8ltdhqe8" class="animable"></polygon><path d="M64.21,404c.93-30.18-6.48-92.45-18.53-116.66l.83-.4C59,312.14,66,374.1,65.17,404Z" style="fill: rgb(224, 224, 224); transform-origin: 55.4582px 345.47px;" id="elvqb8ehkg2" class="animable"></path><path d="M74.93,307.25c-11.33,8.88-14.4,37.86-14.4,37.86C68.56,331.84,81,325.54,74.93,307.25Z" style="fill: rgb(224, 224, 224); transform-origin: 68.5367px 326.18px;" id="elrcc01o5e01" class="animable"></path><path d="M60.4,345.55a.44.44,0,0,1-.31-.48c.12-1.19,3.21-29.27,14.56-38.18a.44.44,0,0,1,.41-.08.45.45,0,0,1,.31.3c4.56,13.73-1.1,20.79-7.65,28.95a84.65,84.65,0,0,0-6.79,9.29.45.45,0,0,1-.4.22Zm.87-2.45c1.82-2.77,3.8-5.23,5.71-7.62,6.29-7.83,11.73-14.61,7.71-27.45C65.77,315.68,62.16,336.46,61.27,343.1Z" style="fill: rgb(224, 224, 224); transform-origin: 68.5529px 326.18px;" id="eld19znlzjqro" class="animable"></path><path d="M32.88,302.62c13.56,4.72,25.61,31.51,25.61,31.51C46.6,324.18,33.06,321.87,32.88,302.62Z" style="fill: rgb(224, 224, 224); transform-origin: 45.685px 318.375px;" id="el5nb0ir91dx" class="animable"></path><path d="M58.53,334.5A93.45,93.45,0,0,0,49.46,328c-8.87-5.78-16.55-10.78-16.68-25.42a.48.48,0,0,1,.2-.37.45.45,0,0,1,.42-.06c13.63,4.75,25.38,30.68,25.87,31.78a.46.46,0,0,1,0,.2.46.46,0,0,1-.46.45A.55.55,0,0,1,58.53,334.5ZM50,327.24c2.49,1.62,5.05,3.29,7.58,5.26-2.94-6-12.89-24.84-23.84-29.23C34.08,316.88,41.46,321.68,50,327.24Z" style="fill: rgb(224, 224, 224); transform-origin: 46.0305px 318.351px;" id="els8pe3wel9p" class="animable"></path><path d="M83.14,334.92c-14.07,10.66-18.7,51-18.7,51C74.55,369.82,90.18,357.47,83.14,334.92Z" style="fill: rgb(224, 224, 224); transform-origin: 74.6722px 360.42px;" id="el29i1amwicjl" class="animable"></path><path d="M64.25,386.43a.58.58,0,0,1-.38-.61c.2-1.66,4.84-40.67,18.92-51.33a.57.57,0,0,1,.52-.09.53.53,0,0,1,.37.37c5.62,18-2.83,29.38-11.78,41.48-2.35,3.2-4.82,6.51-7,9.94a.54.54,0,0,1-.48.26Zm1.08-3c1.82-2.72,3.8-5.34,5.66-7.9,8.63-11.67,16.8-22.71,11.85-39.66C71.59,345.33,66.6,374.71,65.33,383.47Z" style="fill: rgb(224, 224, 224); transform-origin: 74.6788px 360.412px;" id="elmp59jh0rse" class="animable"></path><path d="M30.61,329.34c16.54,6.09,32.2,34.82,32.2,34.82C48.48,351.71,30.39,352.94,30.61,329.34Z" style="fill: rgb(224, 224, 224); transform-origin: 46.709px 346.75px;" id="el3xv0aqjxt6g" class="animable"></path><path d="M62.44,364.59c-4.43-3.85-9.16-6.34-13.75-8.76C38.6,350.51,29.88,345.91,30,329.34a.56.56,0,0,1,.77-.53c16.55,6.11,31.88,33.89,32.51,35.07a.55.55,0,0,1-.13.71.5.5,0,0,1-.37.13A.64.64,0,0,1,62.44,364.59ZM31.17,330.17c.16,15.22,8.46,19.6,18.09,24.66a81.06,81.06,0,0,1,11.56,6.95c-4.29-7.08-16.72-26.27-29.65-31.61Z" style="fill: rgb(224, 224, 224); transform-origin: 46.6778px 346.745px;" id="el4kvbio3a03e" class="animable"></path><path d="M65.47,289.39c-7.9,6.2-10,26.41-10,26.41C61,306.55,69.71,302.15,65.47,289.39Z" style="fill: rgb(224, 224, 224); transform-origin: 61.0328px 302.595px;" id="el1q1gbobvg6i" class="animable"></path><path d="M55.29,316.1a.32.32,0,0,1-.21-.34c.12-.83,2.28-20.42,10.19-26.64a.35.35,0,0,1,.3-.05.32.32,0,0,1,.21.21c3.18,9.58-.77,14.5-5.35,20.2A61.4,61.4,0,0,0,55.71,316a.33.33,0,0,1-.27.15A.26.26,0,0,1,55.29,316.1Zm.65-1.7c1.28-1.93,2.65-3.65,4-5.32,4.39-5.46,8.16-10.18,5.38-19.14C59.09,295.29,56.6,309.78,55.94,314.4Z" style="fill: rgb(224, 224, 224); transform-origin: 61.0037px 302.603px;" id="elogo275pkd6" class="animable"></path><path d="M51.55,302.39a63.74,63.74,0,0,0-6.33-4.51c-6.2-4-11.56-7.53-11.65-17.73a.32.32,0,0,1,.14-.27.39.39,0,0,1,.3,0c9.49,3.33,17.69,21.41,18.05,22.18a.35.35,0,0,1-.11.39.31.31,0,0,1-.19.06A.3.3,0,0,1,51.55,302.39Z" style="fill: rgb(224, 224, 224); transform-origin: 42.8251px 291.18px;" id="elupygazw4fl" class="animable"></path><g id="freepik--freepik--Earth--inject-158--inject-16" class="animable" style="transform-origin: 387.24px 93.1px;"><g id="elhml377xjyyt"><circle cx="387.24" cy="93.1" r="57.88" style="fill: rgb(240, 240, 240); transform-origin: 387.24px 93.1px; transform: rotate(-80.2564deg);" class="animable"></circle></g><polygon points="346.53 121.51 346.53 121.01 345.64 120.22 345.61 118.36 346.46 117.68 346.44 116.64 347.12 116.47 347.22 115.72 348.84 116.05 346.75 113.52 345.64 113.91 344.61 113.22 344.84 112.34 343.93 111.75 345.35 110.39 345.62 109.33 347.31 108.43 346.63 107 347.25 106.59 347.23 105.6 349.25 106.13 349.73 106.96 351.73 109.28 351.95 110.81 352.53 111.82 352.56 112.57 353.21 113.23 353.26 115.23 352.64 115.52 352.65 116 352.04 116.99 350.98 120.58 349.75 120.65 349.21 121.52 346.53 121.51" style="fill: rgb(230, 230, 230); isolation: isolate; transform-origin: 348.595px 113.56px;" id="el13pbymfoosag" class="animable"></polygon><polygon points="371.17 44.67 371.79 43.96 372.98 41.16 373.76 41.65 374.07 41.28 373.19 40.01 373.86 39.06 373.8 38.46 374.97 37.84 377.24 38.42 378.04 38.43 378.5 38.88 380.52 38.45 380.54 39.28 381.45 39.52 380.61 41.42 379.81 42.31 380.13 43.28 377.02 45.44 376.47 46.05 373.99 45.92 373.64 46.82 372.56 47.11 371.17 44.67" style="fill: rgb(230, 230, 230); isolation: isolate; transform-origin: 376.31px 42.475px;" id="eljvqom2e2btr" class="animable"></polygon><polygon points="399.71 49.84 400.74 49.06 402.56 49.54 402.1 51.32 400.34 52.77 399.25 51.62 399.71 49.84" style="fill: rgb(230, 230, 230); isolation: isolate; transform-origin: 400.905px 50.915px;" id="el8l2b40b8ss8" class="animable"></polygon><polygon points="414.57 60.79 415.09 60.38 415.35 59.79 416.07 59.22 416.62 59.16 417.19 58.7 417.5 59.38 418.48 59.77 418.63 61.84 420.52 61.83 420.63 63.38 420.04 63.68 419.9 64.25 418.29 63.83 417.39 64.33 417.73 64.8 417.37 65.02 417.54 65.27 416.5 65.81 416.36 65.62 415.99 65.84 415.21 65.52 414.45 65.95 414.08 65.56 413.53 65.71 413.19 64.58 411.68 64.19 411.42 63.82 410.62 63.61 409.41 61.92 409.52 61.17 409.09 60.58 409.73 60 410.6 60.11 411.29 60.53 411.81 60.47 412.57 60.8 412.98 61.59 413.38 61.39 413.86 61.55 414.57 60.79" style="fill: rgb(230, 230, 230); isolation: isolate; transform-origin: 414.86px 62.325px;" id="ely7irlod72p" class="animable"></polygon><polygon points="436.88 80.6 439.66 79.93 441.84 81.02 443.12 83.56 442.79 84.64 443.22 85.53 442.75 87.35 442 87.21 441.33 88.15 438.9 87.52 439.53 85.09 437.63 84.21 437.62 81.85 436.88 80.6" style="fill: rgb(230, 230, 230); isolation: isolate; transform-origin: 440.05px 84.04px;" id="ellmfjq2t10l" class="animable"></polygon><polygon points="406.09 57.03 407.63 58.64 406.92 61.4 404.7 62.38 404.45 61.92 403.77 61.83 403.21 59.68 402.86 59.04 403.33 58.76 403.6 58.06 405.02 57.17 405.76 57.24 406.09 57.03" style="fill: rgb(230, 230, 230); isolation: isolate; transform-origin: 405.245px 59.705px;" id="elqsim0zo43x" class="animable"></polygon><polygon points="363.83 46.06 366.86 45.63 368.02 46.54 368.35 50 367.6 49.98 366.29 50.7 364.48 50.62 363.92 49.83 362.87 49.79 360.73 48.02 362.01 46.19 363.08 46.54 363.83 46.06" style="fill: rgb(230, 230, 230); isolation: isolate; transform-origin: 364.54px 48.165px;" id="eltfne41pbc2p" class="animable"></polygon><polygon points="386.09 38.34 388.19 39.58 389.01 42.41 386.73 43.52 383.73 42.74 384.57 39.5 386.09 38.34" style="fill: rgb(230, 230, 230); isolation: isolate; transform-origin: 386.37px 40.93px;" id="el1s36yhkiwqa" class="animable"></polygon></g></g><g id="freepik--Shadow--inject-16" class="animable" style="transform-origin: 241.355px 465.11px;"><path d="M427.83,465.09c0,3.39-83.49,6.13-186.48,6.13s-186.47-2.74-186.47-6.13S138.37,459,241.35,459,427.83,461.7,427.83,465.09Z" style="fill: rgb(245, 245, 245); transform-origin: 241.355px 465.11px;" id="elu6lebbvv7p8" class="animable"></path></g><g id="freepik--Airplane--inject-16" class="animable" style="transform-origin: 109.721px 55.5719px;"><g id="freepik--freepik--Plane--inject-2--inject-16" class="animable" style="transform-origin: 109.721px 55.5719px;"><polygon points="148.32 56.31 160.65 53.87 165.28 54.78 157.32 59.53 148.32 56.31" style="fill: rgb(64, 199, 255); transform-origin: 156.8px 56.7px;" id="elqvlb8hivsd9" class="animable"></polygon><g id="elts635ykx1b"><polygon points="148.32 56.31 160.65 53.87 165.28 54.78 157.32 59.53 148.32 56.31" style="isolation: isolate; opacity: 0.3; transform-origin: 156.8px 56.7px;" class="animable"></polygon></g><path d="M81.05,40.43l18.69-7.51a15.52,15.52,0,0,1,8.66-.81l3.58.7L102.3,45Z" style="fill: rgb(64, 199, 255); transform-origin: 96.515px 38.4142px;" id="el2q81vj9rkyu" class="animable"></path><g id="elgo63ts50r0k"><path d="M81.05,40.43l18.69-7.51a15.52,15.52,0,0,1,8.66-.81l3.58.7L102.3,45Z" style="isolation: isolate; opacity: 0.3; transform-origin: 96.515px 38.4142px;" class="animable"></path></g><path d="M50.14,37.14a2.51,2.51,0,0,0,.4,3.53A18.36,18.36,0,0,0,59,44.8l95.88,18.77,3.69-2.64-.89-4.08L63,35.33a18.32,18.32,0,0,0-8.52.21l-2.87.71A2.49,2.49,0,0,0,50.14,37.14Z" style="fill: rgb(64, 199, 255); transform-origin: 104.081px 49.2486px;" id="elg3nmbgepsks" class="animable"></path><g id="elbhoz6aa8wzr"><rect x="129.93" y="49.43" width="0.52" height="42.41" style="fill: rgb(64, 199, 255); transform-origin: 130.19px 70.635px; transform: rotate(-78deg);" class="animable"></rect></g><g id="el9d7wzzxuu4t"><rect x="128.08" y="28.63" width="0.52" height="27.64" style="fill: rgb(64, 199, 255); transform-origin: 128.34px 42.45px; transform: rotate(-78deg);" class="animable"></rect></g><g id="elc4eir9bbxyj"><rect x="163.98" y="72.2" width="0.52" height="11.36" style="fill: rgb(64, 199, 255); transform-origin: 164.24px 77.88px; transform: rotate(-78deg);" class="animable"></rect></g><g id="elcuscbxszcrt"><path d="M54.16,43l.35.17A19.07,19.07,0,0,0,59,44.72l95.88,18.77a4.21,4.21,0,0,0,1.37,0,3.56,3.56,0,0,0-1.22-.47l-93.63-20A18.35,18.35,0,0,0,54.16,43Z" style="isolation: isolate; opacity: 0.3; transform-origin: 105.205px 53.0977px;" class="animable"></path></g><polygon points="147.96 59.11 156.38 70.11 161.01 71.02 158.6 60.85 147.96 59.11" style="fill: rgb(64, 199, 255); transform-origin: 154.485px 65.065px;" id="elron2rxl63o" class="animable"></polygon><polygon points="146.56 54.59 159.01 45.76 163.33 46.61 157.71 56.77 146.56 54.59" style="fill: rgb(64, 199, 255); transform-origin: 154.945px 51.265px;" id="elfy9v7wa0pnh" class="animable"></polygon><path d="M77.92,44.64,92.55,71A15.33,15.33,0,0,0,103,78.58h0l-1.56-29.35Z" style="fill: rgb(64, 199, 255); transform-origin: 90.46px 61.61px;" id="elwwwgvnxgjdn" class="animable"></path><g id="elg952p64hgtu"><g style="opacity: 0.5; transform-origin: 101.085px 48.875px;" class="animable"><g id="elmtiqvxijh3h"><rect x="125.06" y="53.4" width="2.2" height="1.2" style="fill: rgb(255, 255, 255); transform-origin: 126.16px 54px; transform: rotate(-78.41deg);" class="animable"></rect></g><g id="elqxjupgffwsd"><rect x="122.68" y="52.94" width="2.2" height="1.2" style="fill: rgb(255, 255, 255); transform-origin: 123.78px 53.54px; transform: rotate(-78.42deg);" class="animable"></rect></g><g id="elb2r4qfs80th"><rect x="120.3" y="52.46" width="2.2" height="1.2" style="fill: rgb(255, 255, 255); transform-origin: 121.4px 53.06px; transform: rotate(-78.42deg);" class="animable"></rect></g><g id="el5f8gjrojre8"><rect x="117.91" y="51.97" width="2.2" height="1.2" style="fill: rgb(255, 255, 255); transform-origin: 119.01px 52.57px; transform: rotate(-78.42deg);" class="animable"></rect></g><g id="elm0p0w9h5j3g"><rect x="115.52" y="51.48" width="2.2" height="1.2" style="fill: rgb(255, 255, 255); transform-origin: 116.62px 52.08px; transform: rotate(-78.42deg);" class="animable"></rect></g><g id="eleb7s2wr5ao7"><rect x="113.13" y="50.99" width="2.2" height="1.2" style="fill: rgb(255, 255, 255); transform-origin: 114.23px 51.59px; transform: rotate(-78.42deg);" class="animable"></rect></g><g id="el6qmp0zoz664"><rect x="110.74" y="50.5" width="2.2" height="1.2" style="fill: rgb(255, 255, 255); transform-origin: 111.84px 51.1px; transform: rotate(-78.42deg);" class="animable"></rect></g><g id="eld66icb5axqk"><rect x="108.35" y="49.97" width="2.2" height="1.2" style="fill: rgb(255, 255, 255); transform-origin: 109.45px 50.57px; transform: rotate(-78.41deg);" class="animable"></rect></g><g id="elk5g507voq9e"><rect x="105.96" y="49.52" width="2.2" height="1.2" style="fill: rgb(255, 255, 255); transform-origin: 107.06px 50.12px; transform: rotate(-78.42deg);" class="animable"></rect></g><g id="el9qzccwmur44"><rect x="103.58" y="49.02" width="2.2" height="1.2" style="fill: rgb(255, 255, 255); transform-origin: 104.68px 49.62px; transform: rotate(-78.42deg);" class="animable"></rect></g><g id="elswivdb46gai"><rect x="101.19" y="48.52" width="2.2" height="1.21" style="fill: rgb(255, 255, 255); transform-origin: 102.29px 49.125px; transform: rotate(-78.42deg);" class="animable"></rect></g><g id="elpd75w9ojpl"><rect x="98.81" y="48.05" width="2.2" height="1.2" style="fill: rgb(255, 255, 255); transform-origin: 99.91px 48.65px; transform: rotate(-78.42deg);" class="animable"></rect></g><g id="elh1twnk1zo74"><rect x="96.41" y="47.52" width="2.2" height="1.2" style="fill: rgb(255, 255, 255); transform-origin: 97.51px 48.12px; transform: rotate(-78.41deg);" class="animable"></rect></g><g id="elml0khs97rdh"><rect x="94.02" y="47.05" width="2.2" height="1.21" style="fill: rgb(255, 255, 255); transform-origin: 95.12px 47.655px; transform: rotate(-78.42deg);" class="animable"></rect></g><g id="elc7qr3he1ag"><rect x="91.63" y="46.57" width="2.2" height="1.21" style="fill: rgb(255, 255, 255); transform-origin: 92.73px 47.175px; transform: rotate(-78.42deg);" class="animable"></rect></g><g id="elfs38p54091s"><rect x="89.25" y="46.09" width="2.2" height="1.2" style="fill: rgb(255, 255, 255); transform-origin: 90.35px 46.69px; transform: rotate(-78.42deg);" class="animable"></rect></g><g id="elglovbp0uz7r"><rect x="86.86" y="45.58" width="2.2" height="1.21" style="fill: rgb(255, 255, 255); transform-origin: 87.96px 46.185px; transform: rotate(-78.42deg);" class="animable"></rect></g><g id="elbs2jxz2349g"><rect x="84.47" y="45.1" width="2.2" height="1.21" style="fill: rgb(255, 255, 255); transform-origin: 85.57px 45.705px; transform: rotate(-78.42deg);" class="animable"></rect></g><g id="elv0ziq4vh8u"><rect x="82.09" y="44.62" width="2.2" height="1.2" style="fill: rgb(255, 255, 255); transform-origin: 83.19px 45.22px; transform: rotate(-78.42deg);" class="animable"></rect></g><g id="eldnvql08f1lu"><rect x="79.69" y="44.09" width="2.2" height="1.2" style="fill: rgb(255, 255, 255); transform-origin: 80.79px 44.69px; transform: rotate(-78.41deg);" class="animable"></rect></g><g id="el2wu267lv3et"><rect x="77.3" y="43.64" width="2.2" height="1.21" style="fill: rgb(255, 255, 255); transform-origin: 78.4px 44.245px; transform: rotate(-78.42deg);" class="animable"></rect></g><g id="el5wx1paznt47"><rect x="74.91" y="43.15" width="2.2" height="1.2" style="fill: rgb(255, 255, 255); transform-origin: 76.01px 43.75px; transform: rotate(-78.42deg);" class="animable"></rect></g></g></g><g id="eliz942ok73vm"><path d="M50.9,36.51l8.53,1.74a1.1,1.1,0,0,0,.42-2.16l-4.23-.82c-.4.07-.79.17-1.18.27l-2.87.71A3,3,0,0,0,50.9,36.51Z" style="fill: rgb(255, 255, 255); isolation: isolate; opacity: 0.5; transform-origin: 55.8195px 36.77px;" class="animable"></path></g></g></g><g id="freepik--speech-bubble--inject-16" class="animable" style="transform-origin: 422.632px 179.552px;"><path d="M440.25,185.94a20.15,20.15,0,1,0-32.12,8.3l.08,6,5.9-2.45.31.13A20.15,20.15,0,0,0,440.25,185.94Z" style="fill: rgb(64, 199, 255); transform-origin: 421.328px 179.552px;" id="elenq4cfd0pg" class="animable"></path><path d="M443.51,175a.24.24,0,0,1-.24-.22,19.81,19.81,0,0,0-10.6-15.29.25.25,0,0,1-.11-.33.25.25,0,0,1,.34-.12,20.31,20.31,0,0,1,10.86,15.69.24.24,0,0,1-.22.27Z" style="fill: rgb(64, 199, 255); transform-origin: 438.149px 167.007px;" id="eljr18m6rsvpc" class="animable"></path><path d="M443.64,181h-.06a.25.25,0,0,1-.18-.3,7.12,7.12,0,0,0,.08-2.87.24.24,0,0,1,.2-.29.24.24,0,0,1,.29.2,7.61,7.61,0,0,1-.09,3.08A.25.25,0,0,1,443.64,181Z" style="fill: rgb(64, 199, 255); transform-origin: 443.739px 179.267px;" id="elqhwo0t2b5zh" class="animable"></path><polygon points="421 187.87 411.77 180.99 414.17 177.77 420.36 182.38 428.87 172.23 431.95 174.81 421 187.87" style="fill: rgb(255, 255, 255); transform-origin: 421.86px 180.05px;" id="eldqvatu0akjg" class="animable"></polygon></g><g id="freepik--Clipboard--inject-16" class="animable animator-active" style="transform-origin: 234.16px 257.875px;"><rect x="99" y="83.45" width="270.32" height="376.73" rx="7.43" style="fill: rgb(64, 199, 255); transform-origin: 234.16px 271.815px;" id="elorhzez0ue29" class="animable"></rect><g id="elui0r7rjbdg"><rect x="108.82" y="121.02" width="250.68" height="325.07" style="opacity: 0.3; transform-origin: 234.16px 283.555px;" class="animable"></rect></g><rect x="109.27" y="97.28" width="250.68" height="338.88" style="fill: rgb(255, 255, 255); transform-origin: 234.61px 266.72px;" id="eln69y8tmekod" class="animable"></rect><path d="M142.1,123.75h18.3a4.45,4.45,0,0,1,4.45,4.45v18.3a4.44,4.44,0,0,1-4.44,4.44H142.1a4.45,4.45,0,0,1-4.45-4.45V128.2A4.44,4.44,0,0,1,142.1,123.75Z" style="fill: rgb(64, 199, 255); transform-origin: 151.25px 137.345px;" id="elberyvnsgt1l" class="animable"></path><path d="M175.85,133.48h-3.14v-1.85h8.54v1.85h-3.13v8h-2.27Z" style="fill: rgb(38, 50, 56); transform-origin: 176.98px 136.555px;" id="el4oc9u1zi70a" class="animable"></path><path d="M188.72,141.44l-1.89-2.74h-2.09v2.74h-2.27v-9.81h4.24a5.47,5.47,0,0,1,2.27.44,3.37,3.37,0,0,1,0,6.21l2.19,3.16Zm-.58-7.52a2.39,2.39,0,0,0-1.55-.44h-1.85v3.42h1.85a2.33,2.33,0,0,0,1.55-.45,1.75,1.75,0,0,0,0-2.53Z" style="fill: rgb(38, 50, 56); transform-origin: 186.82px 136.534px;" id="elc0y1a0ku1j" class="animable"></path><path d="M199.22,139.34h-4.55l-.87,2.1h-2.32l4.37-9.81h2.24l4.38,9.81h-2.38Zm-.71-1.73L197,133.86l-1.55,3.75Z" style="fill: rgb(38, 50, 56); transform-origin: 196.975px 136.535px;" id="el73t30jksid6" class="animable"></path><path d="M212.38,131.63l-4.24,9.81H205.9l-4.23-9.81h2.45l3,7,3-7Z" style="fill: rgb(38, 50, 56); transform-origin: 207.025px 136.535px;" id="eltiexhses99g" class="animable"></path><path d="M220.79,139.62v1.82H213.2v-9.81h7.4v1.82h-5.15v2.13H220v1.77h-4.55v2.27Z" style="fill: rgb(38, 50, 56); transform-origin: 216.995px 136.535px;" id="el0hp6g34hj6z" class="animable"></path><path d="M222.59,131.63h2.27v8h4.92v1.85h-7.19Z" style="fill: rgb(38, 50, 56); transform-origin: 226.185px 136.555px;" id="elruulidi0ry" class="animable"></path><path d="M235,131.63h2.27v9.81H235Z" style="fill: rgb(38, 50, 56); transform-origin: 236.135px 136.535px;" id="elbti4a7weof" class="animable"></path><path d="M248.6,131.63v9.81h-1.87l-4.88-6v6h-2.24v-9.81h1.87l4.88,6v-6Z" style="fill: rgb(38, 50, 56); transform-origin: 244.105px 136.535px;" id="el5kexozc7t78" class="animable"></path><path d="M251.89,141.29a5.22,5.22,0,0,1-1.74-.82l.77-1.71a5,5,0,0,0,1.5.74,5.55,5.55,0,0,0,1.74.28,2.75,2.75,0,0,0,1.42-.28.89.89,0,0,0,.47-.77.72.72,0,0,0-.28-.58,2,2,0,0,0-.7-.37c-.28-.09-.67-.2-1.15-.31a14.36,14.36,0,0,1-1.84-.53,3,3,0,0,1-1.22-.85,2.33,2.33,0,0,1-.51-1.57,2.71,2.71,0,0,1,.46-1.55,3.12,3.12,0,0,1,1.39-1.1,5.7,5.7,0,0,1,2.28-.41,7.52,7.52,0,0,1,1.83.23,5.44,5.44,0,0,1,1.57.64l-.7,1.73a5.38,5.38,0,0,0-2.72-.77,2.58,2.58,0,0,0-1.4.3.94.94,0,0,0-.46.82.79.79,0,0,0,.53.74,7.74,7.74,0,0,0,1.6.49,15.37,15.37,0,0,1,1.83.53,3.08,3.08,0,0,1,1.23.84,2.25,2.25,0,0,1,.51,1.55,2.71,2.71,0,0,1-.47,1.54,3.13,3.13,0,0,1-1.41,1.1,5.71,5.71,0,0,1-2.28.4A8.09,8.09,0,0,1,251.89,141.29Z" style="fill: rgb(38, 50, 56); transform-origin: 254.227px 136.53px;" id="elh5gqrvnfj3f" class="animable"></path><path d="M260.94,140.44a4.46,4.46,0,0,1-1.17-3.32v-5.49H262V137c0,1.75.73,2.63,2.18,2.63a2,2,0,0,0,1.63-.64,3,3,0,0,0,.56-2v-5.41h2.24v5.49a4.46,4.46,0,0,1-1.17,3.32,5.19,5.19,0,0,1-6.54,0Z" style="fill: rgb(38, 50, 56); transform-origin: 264.19px 136.565px;" id="elilphwh0dkj" class="animable"></path><path d="M277.14,141.44l-1.89-2.74h-2.09v2.74h-2.27v-9.81h4.24a5.47,5.47,0,0,1,2.27.44,3.37,3.37,0,0,1,0,6.21l2.19,3.16Zm-.58-7.52a2.39,2.39,0,0,0-1.55-.44h-1.85v3.42H275a2.33,2.33,0,0,0,1.55-.45,1.77,1.77,0,0,0,0-2.53Z" style="fill: rgb(38, 50, 56); transform-origin: 275.24px 136.534px;" id="eleewe7n6sdll" class="animable"></path><path d="M287.64,139.34h-4.55l-.87,2.1H279.9l4.36-9.81h2.24l4.39,9.81h-2.38Zm-.71-1.73-1.56-3.75-1.55,3.75Z" style="fill: rgb(38, 50, 56); transform-origin: 285.395px 136.535px;" id="el3fia4p2bzaw" class="animable"></path><path d="M300.9,131.63v9.81H299l-4.89-6v6h-2.24v-9.81h1.88l4.87,6v-6Z" style="fill: rgb(38, 50, 56); transform-origin: 296.385px 136.535px;" id="elxfso4zzad2" class="animable"></path><path d="M305.21,141a4.8,4.8,0,0,1-1.91-1.8,5.3,5.3,0,0,1,0-5.23,4.8,4.8,0,0,1,1.91-1.8,5.56,5.56,0,0,1,2.72-.66,5.65,5.65,0,0,1,2.3.45A4.55,4.55,0,0,1,312,133.2l-1.45,1.35A3.14,3.14,0,0,0,308,133.4a3.22,3.22,0,0,0-1.62.4,2.7,2.7,0,0,0-1.11,1.11,3.5,3.5,0,0,0,0,3.25,2.76,2.76,0,0,0,1.11,1.11,3.22,3.22,0,0,0,1.62.4,3.15,3.15,0,0,0,2.47-1.16l1.45,1.34a4.5,4.5,0,0,1-1.73,1.31,5.91,5.91,0,0,1-2.31.44A5.54,5.54,0,0,1,305.21,141Z" style="fill: rgb(38, 50, 56); transform-origin: 307.305px 136.556px;" id="el767rsojsb0w" class="animable"></path><path d="M321.08,139.62v1.82h-7.59v-9.81h7.41v1.82h-5.15v2.13h4.55v1.77h-4.55v2.27Z" style="fill: rgb(38, 50, 56); transform-origin: 317.285px 136.535px;" id="el5uj64ug786e" class="animable"></path><rect x="137.65" y="166.06" width="193.01" height="10.43" style="fill: rgb(224, 224, 224); transform-origin: 234.155px 171.275px;" id="elzq2993ufo9b" class="animable"></rect><rect x="137.65" y="240.08" width="193.01" height="10.43" style="fill: rgb(224, 224, 224); transform-origin: 234.155px 245.295px;" id="elfve8yf5cxgg" class="animable"></rect><rect x="137.65" y="405.66" width="193.01" height="10.43" style="fill: rgb(224, 224, 224); transform-origin: 234.155px 410.875px;" id="elv3x4vv23wcj" class="animable"></rect><rect x="137.65" y="190.57" width="193.01" height="1" style="fill: rgb(38, 50, 56); transform-origin: 234.155px 191.07px;" id="el322r8ux4etu" class="animable"></rect><rect x="137.65" y="206.7" width="193.01" height="1" style="fill: rgb(38, 50, 56); transform-origin: 234.155px 207.2px;" id="eltffzu8lwus" class="animable"></rect><rect x="137.65" y="222.84" width="193.01" height="1" style="fill: rgb(38, 50, 56); transform-origin: 234.155px 223.34px;" id="elx9ecpbh8j3e" class="animable"></rect><rect x="137.65" y="269.21" width="193.01" height="1" style="fill: rgb(38, 50, 56); transform-origin: 234.155px 269.71px;" id="el2p4c77ud525" class="animable"></rect><rect x="173.22" y="290.07" width="157.44" height="1" style="fill: rgb(38, 50, 56); transform-origin: 251.94px 290.57px;" id="elqkncm2jxl4j" class="animable"></rect><rect x="173.22" y="304.77" width="157.44" height="1" style="fill: rgb(38, 50, 56); transform-origin: 251.94px 305.27px;" id="elkrmgvcd181" class="animable"></rect><path d="M165.73,309.36H139.26V282.89h26.47Zm-25.47-1h24.47V283.89H140.26Z" style="fill: rgb(38, 50, 56); transform-origin: 152.495px 296.125px;" id="elzxkvfbgrn6o" class="animable"></path><rect x="173.22" y="329.75" width="157.44" height="1" style="fill: rgb(38, 50, 56); transform-origin: 251.94px 330.25px;" id="elrnnjb1yg04" class="animable"></rect><rect x="173.22" y="344.45" width="157.44" height="1" style="fill: rgb(38, 50, 56); transform-origin: 251.94px 344.95px;" id="elycdxtnzcbt" class="animable"></rect><path d="M165.73,349H139.26V322.57h26.47Zm-25.47-1h24.47V323.57H140.26Z" style="fill: rgb(38, 50, 56); transform-origin: 152.495px 335.785px;" id="eld6pu6z68v2n" class="animable"></path><rect x="173.22" y="369.43" width="157.44" height="1" style="fill: rgb(38, 50, 56); transform-origin: 251.94px 369.93px;" id="el760jo3c30cr" class="animable"></rect><rect x="173.22" y="384.13" width="157.44" height="1" style="fill: rgb(38, 50, 56); transform-origin: 251.94px 384.63px;" id="elm39due7fu4o" class="animable"></rect><path d="M165.73,388.72H139.26V362.24h26.47Zm-25.47-1h24.47V363.24H140.26Z" style="fill: rgb(38, 50, 56); transform-origin: 152.495px 375.48px;" id="elj5cd9icgkro" class="animable"></path><path d="M140.78,132.81c1.28-1.48,4.58-.55,6.85.66,0,0,1.56.74,2.14,1.12h0l5.3-.66a2.24,2.24,0,0,1,1.25.22l.44.22a.29.29,0,0,1,0,.53l-3.9,1.67v0l3.85,2.53.06,0a3.4,3.4,0,0,0,2.45.49l2.06-.37a.55.55,0,0,1,.31,0,.52.52,0,0,1,.14.88l-2.39,2a1.25,1.25,0,0,1-1.34.17l-1.12-.51-5.65-2.7.65,3.23a.22.22,0,0,1-.22.25h-.27a1.1,1.1,0,0,1-.88-.54l-2.28-4.35-6.67-3.18C140.66,134.16,140.34,133.4,140.78,132.81Z" style="fill: rgb(255, 255, 255); transform-origin: 151.25px 137.295px;" id="eljn59s2rgcp" class="animable"></path><polygon points="155.77 306.24 141.83 295.85 145.45 290.99 154.8 297.95 167.65 282.63 172.29 286.52 155.77 306.24" style="fill: rgb(64, 199, 255); transform-origin: 157.06px 294.435px;" id="el5dj5pyegoj" class="animable"></polygon><polygon points="155.77 345.06 141.83 334.68 145.45 329.81 154.8 336.77 167.65 321.45 172.29 325.35 155.77 345.06" style="fill: rgb(64, 199, 255); transform-origin: 157.06px 333.255px;" id="ely7xufp08ne" class="animable"></polygon><polygon points="155.77 383.88 141.83 373.5 145.45 368.64 154.8 375.6 167.65 360.27 172.29 364.17 155.77 383.88" style="fill: rgb(64, 199, 255); transform-origin: 157.06px 372.075px;" id="elesi54fqvnmf" class="animable"></polygon><rect x="191.28" y="76.93" width="85.75" height="32.34" style="fill: rgb(38, 50, 56); transform-origin: 234.155px 93.1px;" id="elrl25ggrvoa" class="animable"></rect><polygon points="261.3 80.2 211.16 80.2 205.57 55.57 268.17 55.57 261.3 80.2" style="fill: rgb(38, 50, 56); transform-origin: 236.87px 67.885px;" id="el9vzgxr7ql35" class="animable"></polygon><g id="elxerttc3qjzt"><path d="M263.05,55.57c-.06.15-6.68,21.08-6.52,21.08h5.69l6-21.08Z" style="opacity: 0.3; transform-origin: 262.374px 66.11px;" class="animable"></path></g><g id="ellgvpkycv5p"><path d="M271.49,76.93s-.41,32.35,0,32.35H277V76.93Z" style="opacity: 0.3; transform-origin: 274.154px 93.105px;" class="animable"></path></g></g><g id="freepik--Character--inject-16" class="animable" style="transform-origin: 361.835px 330.52px;"><path d="M353.68,237.66,334,278.31l-23.46,24.85,5.19,4.47s22.55-15.49,28.84-24.07c5.88-8,16.85-34,16.85-34Z" style="fill: rgb(185, 121, 100); transform-origin: 335.98px 272.645px;" id="el352ir6x3sc" class="animable"></path><path d="M310.56,303.16c-2.95.33-4.83-.45-8.25-1.38a9.32,9.32,0,0,0-1.61-.49,1,1,0,0,0-1,.64,2,2,0,0,0,.58,1.43,10.61,10.61,0,0,0,3.35,2,9.7,9.7,0,0,0-3.19,2.55,3.12,3.12,0,0,0-.63,1.9,1.35,1.35,0,0,0,1.3,1.28,2.47,2.47,0,0,0,2,2.27c.27.79.81,1.63,1.63,1.67a3,3,0,0,1,.85,0c.25.1.41.34.62.5.68.56,1.7.25,2.52-.11,3.26-1.44,4.88-5,7-7.87" style="fill: rgb(185, 121, 100); transform-origin: 307.715px 308.562px;" id="elgbdy73e0in6" class="animable"></path><path d="M302.3,308.15a8.07,8.07,0,0,1,8.05,8.06V409a8.06,8.06,0,0,1-8.05,8h-8.6a8.07,8.07,0,0,1-8.06-8V316.21a8.07,8.07,0,0,1,8.06-8.06h8.6m0-1.55h-8.6a9.65,9.65,0,0,0-9.61,9.61V409a9.64,9.64,0,0,0,9.61,9.6h8.6a9.63,9.63,0,0,0,9.6-9.6V316.21A9.64,9.64,0,0,0,302.3,306.6Z" id="elum0cl34vtm" class="animable" style="transform-origin: 297.995px 362.6px;"></path><circle cx="319.59" cy="466.65" r="3.64" id="el5cz6sfk8akd" class="animable" style="transform-origin: 319.59px 466.65px;"></circle><path d="M310.42,466.65a3.65,3.65,0,1,1-3.7-3.6h0A3.65,3.65,0,0,1,310.42,466.65Z" id="elg2q2g5093sr" class="animable" style="transform-origin: 306.77px 466.7px;"></path><path d="M289.45,466.65a3.64,3.64,0,1,1-3.64-3.64A3.64,3.64,0,0,1,289.45,466.65Z" id="elmfrfacn737l" class="animable" style="transform-origin: 285.81px 466.65px;"></path><circle cx="272.99" cy="466.65" r="3.64" id="elr09001ljeb" class="animable" style="transform-origin: 272.99px 466.65px;"></circle><rect x="268.8" y="369" width="61.39" height="95.34" rx="4.77" style="fill: rgb(64, 199, 255); transform-origin: 299.495px 416.67px;" id="elh6rh3csh4ze" class="animable"></rect><g id="elhj6d5wupi7"><rect x="268.8" y="369" width="61.39" height="95.34" rx="4.77" style="opacity: 0.5; transform-origin: 299.495px 416.67px;" class="animable"></rect></g><rect x="262.88" y="369" width="55.59" height="95.34" rx="4.77" style="fill: rgb(64, 199, 255); transform-origin: 290.675px 416.67px;" id="elr9442thieaq" class="animable"></rect><g id="elehtojb356zf"><rect x="262.88" y="369" width="55.59" height="95.34" rx="4.77" style="opacity: 0.3; transform-origin: 290.675px 416.67px;" class="animable"></rect></g><g id="elk21l9ib3pxl"><path d="M274,455.14h0a2.34,2.34,0,0,1-2.34-2.34V384.48a2.34,2.34,0,0,1,2.34-2.34h0a2.34,2.34,0,0,1,2.34,2.34V452.8A2.34,2.34,0,0,1,274,455.14Z" style="fill: rgb(255, 255, 255); opacity: 0.3; transform-origin: 274px 418.64px;" class="animable"></path></g><g id="ellopsa9v27d9"><path d="M285.36,455.14h0A2.34,2.34,0,0,1,283,452.8V384.48a2.34,2.34,0,0,1,2.34-2.34h0a2.34,2.34,0,0,1,2.34,2.34V452.8A2.34,2.34,0,0,1,285.36,455.14Z" style="fill: rgb(255, 255, 255); opacity: 0.3; transform-origin: 285.34px 418.64px;" class="animable"></path></g><g id="elqhrvovs08z"><path d="M296.68,455.14h0a2.34,2.34,0,0,1-2.34-2.34V384.48a2.34,2.34,0,0,1,2.34-2.34h0a2.34,2.34,0,0,1,2.34,2.34V452.8A2.34,2.34,0,0,1,296.68,455.14Z" style="fill: rgb(255, 255, 255); opacity: 0.3; transform-origin: 296.68px 418.64px;" class="animable"></path></g><g id="ellrbf57gq3nc"><path d="M308,455.14h0a2.34,2.34,0,0,1-2.34-2.34V384.48a2.34,2.34,0,0,1,2.34-2.34h0a2.34,2.34,0,0,1,2.34,2.34V452.8A2.34,2.34,0,0,1,308,455.14Z" style="fill: rgb(255, 255, 255); opacity: 0.3; transform-origin: 308px 418.64px;" class="animable"></path></g><g id="elzg6k03aiju"><g style="opacity: 0.3; transform-origin: 306.724px 308.948px;" class="animable"><path d="M302.69,305.81a8.54,8.54,0,0,1,7.74,3.78,1.8,1.8,0,0,1,.38,1.46,1.85,1.85,0,0,1-1.13,1c-.65.3-.07-.63-.76-.45-.36.09-1.16-.36-1.53-.45a1.83,1.83,0,0,1-1-.66c-1.14-1.21-3.05-1-3.78-2.53" id="el8irjvlzzb0t" class="animable" style="transform-origin: 306.724px 308.948px;"></path></g></g><path d="M309.44,314.3a3.43,3.43,0,0,0,1.25-.8,1.21,1.21,0,0,0,.2-1.39,1.16,1.16,0,0,0-.91-.47,2.83,2.83,0,0,0-1,.21,8.27,8.27,0,0,0-1.36.69,5.13,5.13,0,0,0,1-.84,1.61,1.61,0,0,0,.4-1.21.87.87,0,0,0-.26-.51,1.2,1.2,0,0,0-1.08-.11,5.36,5.36,0,0,0-2.11,1.11,8.35,8.35,0,0,1,.92-1,2.45,2.45,0,0,0,.73-1.1,1.11,1.11,0,0,0-.35-1.2,1.47,1.47,0,0,0-1.24-.19,6.13,6.13,0,0,0-1.81.9,5.1,5.1,0,0,0,1.29-1.37,1,1,0,0,0,.19-.47c0-.33-.31-.57-.62-.69a2.64,2.64,0,0,0-1.91.15,6.33,6.33,0,0,0-2.48,2.14s1.35,1.32,1.46,1.39l6.38,4.46Z" style="fill: rgb(185, 121, 100); transform-origin: 305.657px 310.024px;" id="el5yf07altobw" class="animable"></path><g id="el68tev7z43ne"><rect x="411.18" y="251.31" width="1" height="76.88" style="fill: rgb(64, 199, 255); transform-origin: 411.68px 289.75px; transform: rotate(-21.27deg);" class="animable"></rect></g><path d="M446.86,362.46c-7.44-1.61-15.18-.82-22.71.31-14.31,2.13-28.56,5.46-41.64,11.64-15.84,2.1-37.89,2.14-42,8.13,40.9,16.74,89.27-1.15,107.8-12.46,1.52-.93,3.2-2.25,3.1-4C451.27,364,448.89,362.9,446.86,362.46Z" style="fill: rgb(64, 199, 255); transform-origin: 395.962px 375.46px;" id="el2vuof234dq" class="animable"></path><g id="el6a863j7pcn"><g style="opacity: 0.2; transform-origin: 395.962px 375.46px;" class="animable"><path d="M446.86,362.46c-7.44-1.61-15.18-.82-22.71.31-14.31,2.13-28.56,5.46-41.64,11.64-15.84,2.1-37.89,2.14-42,8.13,40.9,16.74,89.27-1.15,107.8-12.46,1.52-.93,3.2-2.25,3.1-4C451.27,364,448.89,362.9,446.86,362.46Z" id="el93iuuf7ovm5" class="animable" style="transform-origin: 395.962px 375.46px;"></path></g></g><path d="M398.85,237.66s3,.81,5.92,6.83c2,4.15,12.47,27.92,13.28,32,1.28,6.32,1.83,42.51,1.83,42.51h-6.52s-6.47-38.38-6.6-38.77-14.4-28.75-14.4-28.75Z" style="fill: rgb(185, 121, 100); transform-origin: 406.12px 278.33px;" id="ellobh7fpvsql" class="animable"></path><path d="M427.21,398.4c-2.72-4.57-7.5-9.08-9.28-12.9-1.56-3.3-1.38-5.89-4-13.77-3.17-9.55-8.18-22-14.79-30.43,0,0,4.56-14.46-6.94-25.9l-7.55-7.19-28.78,7.92,43.7,74.06,41.5,61,7.77-3.32C444.14,433.69,434.76,411.73,427.21,398.4Z" style="fill: rgb(185, 121, 100); transform-origin: 402.355px 379.7px;" id="el7hgt2opvrbs" class="animable"></path><g id="ell0tsbkz04jf"><path d="M412.24,366.12l-18.72,11v3L395,382.5l1.65,2.8s3.89-2.65,8-5.25,10-6.26,10-6.26Z" style="opacity: 0.2; transform-origin: 404.085px 375.71px;" class="animable"></path></g><path d="M443.7,472.64a13.8,13.8,0,0,1,2-3.79h0s1.28-5.22-3.24-14.07l3.66-4.44a5.57,5.57,0,0,1,4.85-2,2.19,2.19,0,0,1,.64.21,19.63,19.63,0,0,1,2.41,2.05,69.52,69.52,0,0,1,6.77,8.23l-.81.69-4.51-5c-1.47-1.74-1.65,1.87-.62,4.18s1.62,5.28-3.41,9.52C445.7,473.11,443.1,475,443.7,472.64Z" id="el226ydxgxaxm" class="animable" style="transform-origin: 451.625px 460.982px;"></path><path d="M439.68,448.66a115,115,0,0,1,4.84,12.06,18.82,18.82,0,0,1,1.16,8.17s4.22-2.62,4.29-5.92-3.07-11.82,1.07-14.64a8.57,8.57,0,0,0-2.23-.45l-1.23-2.55C445.23,446.31,439.68,448.66,439.68,448.66Z" style="fill: rgb(185, 121, 100); transform-origin: 445.36px 457.11px;" id="el14ivju7ten7" class="animable"></path><path d="M392.77,254.12l7.35-15.35c-3.31-5-19.71-8.75-19.71-8.75l-10.8.59s-4.16.93-7.71,2.09c-4.75,1.55-7.31,2.79-8.45,5.42,0,0-2.27,5.87-.79,17.86.41,3.32,1.53,22.5-1.5,28l.06,1.52c19.74,15.37,36.44,12.8,36.44,12.8-.89-2.72-.8-11.67-1.2-14.32a58.39,58.39,0,0,1,1.6-11.89C388.33,271,392.29,255.23,392.77,254.12Z" style="fill: rgb(185, 121, 100); transform-origin: 375.64px 264.241px;" id="elcw5ip7t9uze" class="animable"></path><path d="M398.76,224.11c.92-8.54-5.31-6.44-4.49-17.36.89-12-10.54-15-10.54-15s-4-5.28-9.43-6.76c-7-1.89-24.94,2.73-20.82,17.92,2.45,9.06.95,8.69-.41,12.48-1.93,5.36,2.7,12.71-2.4,16,0,0,19.61-.4,40.58.81C391.25,232.13,398.2,229.32,398.76,224.11Z" style="fill: rgb(38, 50, 56); transform-origin: 374.762px 208.395px;" id="els7nbcb24n9" class="animable"></path><path d="M383.09,231.74a41.64,41.64,0,0,0-7.82,5.43,15,15,0,0,1-2.93,2c-2.83,1.51-5.4,2.36-6.1,1a4.44,4.44,0,0,1-.37-1c-.59-2.28-.34-5.49,1.5-7,2.08-1.66,3.08-3.07,2.71-5.31a16.83,16.83,0,0,0-1.2-3.86l2.41-1.44,8.56-8.64C378.87,218.3,378.58,228.6,383.09,231.74Z" style="fill: rgb(185, 121, 100); transform-origin: 374.338px 226.886px;" id="elwxxjsznb5oj" class="animable"></path><g id="elhb1lzq3n6f"><path d="M370.15,227.43c2.35-1.4,4.93-3.82,4.62-6.59a12.54,12.54,0,0,0-.66-3l-4.79,6.33A15.52,15.52,0,0,1,370.15,227.43Z" style="opacity: 0.2; transform-origin: 372.058px 222.635px;" class="animable"></path></g><path d="M381.5,203.26c-.8,8.8-1,12.52-5.5,17.14-6.82,6.93-17.33,4.6-19.13-4.12-1.63-7.84,0-20.91,8.59-24.61A11.31,11.31,0,0,1,381.5,203.26Z" style="fill: rgb(185, 121, 100); transform-origin: 368.944px 207.525px;" id="el3f03ax912af" class="animable"></path><path d="M370.11,206.12c0,.93-.55,1.7-1.12,1.71s-1-.73-1-1.66.54-1.7,1.12-1.71S370.15,205.19,370.11,206.12Z" style="fill: rgb(38, 50, 56); transform-origin: 369.051px 206.145px;" id="elfx4acx330qh" class="animable"></path><path d="M361.44,206.1c-.05.9-.55,1.64-1.13,1.65s-1-.71-1-1.61.55-1.64,1.12-1.65S361.48,205.19,361.44,206.1Z" style="fill: rgb(38, 50, 56); transform-origin: 360.376px 206.12px;" id="el3qy7r1rsgj3" class="animable"></path><path d="M372,202.88a.41.41,0,0,1-.32-.1,3.19,3.19,0,0,0-2.89-.81.39.39,0,0,1-.51-.29.47.47,0,0,1,.32-.54,3.94,3.94,0,0,1,3.68,1,.44.44,0,0,1,0,.61A.41.41,0,0,1,372,202.88Z" style="fill: rgb(38, 50, 56); transform-origin: 370.337px 201.955px;" id="elmtfovghjt8" class="animable"></path><path d="M358.52,201.68a.31.31,0,0,1-.2-.19.47.47,0,0,1,.22-.56,3.66,3.66,0,0,1,3.56-.24.4.4,0,0,1,.1.56.43.43,0,0,1-.55.18,2.92,2.92,0,0,0-2.82.22A.38.38,0,0,1,358.52,201.68Z" style="fill: rgb(38, 50, 56); transform-origin: 360.285px 201.019px;" id="elgay6ip4nf78" class="animable"></path><path d="M363.8,205.67a30,30,0,0,1-2.93,5.34.68.68,0,0,0,.32,1,4.38,4.38,0,0,0,2.36,0Z" style="fill: rgb(162, 78, 63); transform-origin: 362.281px 208.921px;" id="elhcagh5qdv6s" class="animable"></path><path d="M369.47,204.5l-2-.48S368.56,205.53,369.47,204.5Z" style="fill: rgb(38, 50, 56); transform-origin: 368.47px 204.44px;" id="ell658dfi8ewh" class="animable"></path><path d="M360.68,204.51l-2-.48S359.77,205.53,360.68,204.51Z" style="fill: rgb(38, 50, 56); transform-origin: 359.68px 204.448px;" id="eljr3iia7n62j" class="animable"></path><path d="M378.45,206.3s-4.54-6.83-4.3-12.36c0,0-8.69-2.27-15.61,7-1.11,1.47-1.76,3.93-2.75,6,0,0-1.66-16.74,13.19-18.11s17.74,19.48,10.51,26.49A10.9,10.9,0,0,0,378.45,206.3Z" style="fill: rgb(38, 50, 56); transform-origin: 369.509px 202.043px;" id="elwfvriuyzgi" class="animable"></path><path d="M384.16,210.43a7.05,7.05,0,0,1-4.27,3.32c-2.33.59-3.53-3.16-2.74-5.49a4.68,4.68,0,0,1,5.27-3C384.65,205.68,385.35,208.37,384.16,210.43Z" style="fill: rgb(185, 121, 100); transform-origin: 380.821px 209.495px;" id="elacdj51e7uw9" class="animable"></path><g id="el7k29lpbo0qo"><path d="M379.25,210.21h0a.25.25,0,0,1-.23-.27,3.43,3.43,0,0,1,1.16-2.36,3.54,3.54,0,0,1,2.49-.85.25.25,0,0,1,.23.27.23.23,0,0,1-.26.23,3,3,0,0,0-2.13.73,3,3,0,0,0-1,2A.23.23,0,0,1,379.25,210.21Z" style="opacity: 0.2; transform-origin: 380.96px 208.469px;" class="animable"></path></g><path d="M366.36,215a4,4,0,0,1-.81-.08.26.26,0,0,1-.2-.3.25.25,0,0,1,.3-.19,2.72,2.72,0,0,0,3.18-1.62.25.25,0,1,1,.46.17A3.23,3.23,0,0,1,366.36,215Z" style="fill: rgb(38, 50, 56); transform-origin: 367.336px 213.8px;" id="elt3eprlukf2" class="animable"></path><path d="M347.38,308.89l-3.23,75.51,2.59,73.17,9.1,2.34c4-14.46,7.3-42.88,8.24-57.7.22-5.08-1.42-10.94-.85-14.94.5-3.52,2.14-5.75,4.29-13.73,2.6-9.66,5.23-22.58,4.18-32.58,0,0,12.22-11,8.6-25.56Z" style="fill: rgb(185, 121, 100); transform-origin: 362.56px 384.4px;" id="el9gard9pk6bk" class="animable"></path><g id="elyqdflod55o"><path d="M344.15,384.4s3.55-3.38,10.08-2.4,9.62,2.63,9.62,2.63l1.77-4.93-15-4.24-6.5,3.22Z" style="opacity: 0.2; transform-origin: 354.87px 380.045px;" class="animable"></path></g><path d="M335.28,474.78a14.48,14.48,0,0,1,4-1.59h0s4.35-3.16,6.6-12.83l5.65-1a5.58,5.58,0,0,1,5,1.56,2.14,2.14,0,0,1,.35.57,19.6,19.6,0,0,1,.52,3.11,69.1,69.1,0,0,1-.13,10.67h-1.06l-.25-6.7c0-2.28-2.47.37-3.17,2.8s-2.17,5.08-8.75,5.08C336.51,476.43,333.32,476.18,335.28,474.78Z" id="eljwzha5qk1y" class="animable" style="transform-origin: 346.131px 467.857px;"></path><path d="M346.94,456.89a90.8,90.8,0,0,1-3.35,9.31,18.81,18.81,0,0,1-4.38,7s4.91.73,7.1-1.75,5.26-11,10.25-10.51a9,9,0,0,0-1.41-1.78C354.34,458.25,346.94,456.89,346.94,456.89Z" style="fill: rgb(185, 121, 100); transform-origin: 347.885px 465.095px;" id="elbd9gny1r8fd" class="animable"></path><path d="M344.15,308.6c-4.28,20.33-4.33,56.31-3.66,73.94,0,0,9.34-7.81,24.3-2.57s21.34,5.33,28.87,3,13.43-13.72,35.15-17.73,22.55.53,22.55.53,2.61-5.19-8.26-8.81S419.23,341,412.94,333s-20.8-33.71-23.93-39.79a21.81,21.81,0,0,1-2.4-12.17l-33.77-2.46A221.45,221.45,0,0,0,344.15,308.6Z" style="fill: rgb(38, 50, 56); transform-origin: 395.904px 331.505px;" id="elmzn433wkxi" class="animable"></path><path d="M393.8,255.1l6.1-17c-4.52-4.58-16.28-7.22-16.28-7.22l-14.95,25.06L361.9,232.7c-4.75,1.55-7.31,2.79-8.45,5.42,0,0-2.27,5.87-.79,17.86.41,3.32,1.53,22.5-1.5,28l.06,1.52c19.74,15.37,36.44,12.8,36.44,12.8-.89-2.72-.69-12.13-1.09-14.79.29-3.38.05-5.49,1.49-11.42C388.33,271,393.32,256.21,393.8,255.1Z" style="fill: rgb(38, 50, 56); transform-origin: 375.53px 264.671px;" id="elwk6kttrd1oh" class="animable"></path><polygon points="350.81 283.86 387.23 286.92 387.24 279.85 352.75 276.9 350.81 283.86" style="fill: rgb(64, 199, 255); transform-origin: 369.025px 281.91px;" id="elfrx6zlus2no" class="animable"></polygon><g id="elf1ecrxhhw1"><rect x="408.01" y="327.26" width="24.47" height="22.05" rx="4.45" style="fill: rgb(64, 199, 255); transform-origin: 420.245px 338.285px; transform: rotate(-18.81deg);" class="animable"></rect></g><g id="elqavwtf47bv"><path d="M422.82,339.89a10.89,10.89,0,0,1-2.57-.39,64,64,0,0,1-13.6-5.56.26.26,0,0,1-.11-.34.25.25,0,0,1,.34-.1A64.12,64.12,0,0,0,420.37,339a6.28,6.28,0,0,0,4.19,0,5.36,5.36,0,0,0,2.52-3.23,17.25,17.25,0,0,0,.24-9.93.26.26,0,0,1,.16-.32.26.26,0,0,1,.32.16,18,18,0,0,1-.25,10.26,5.82,5.82,0,0,1-2.78,3.51A4.55,4.55,0,0,1,422.82,339.89Z" style="opacity: 0.3; transform-origin: 417.471px 332.699px;" class="animable"></path></g><path d="M409.85,330.53c-12.34-26.7-24.38-68.16-17.66-97.14l1,.23c-6.66,28.73,5.32,69.94,17.6,96.49Z" style="fill: rgb(64, 199, 255); transform-origin: 400.526px 281.96px;" id="elovhyuomqv7" class="animable"></path><path d="M413.71,318.8a7.06,7.06,0,0,0-3,3.75c-.57,2.29-1.63,4-1.93,5.71s1.54.23,2.36-.77,1.75-2.12,2.4-1.39,2.37,9,3.39,9.92,1.16-.51,1.16-.51.48,2,1.32,2c.22,0,.74-.33.67-1.28-.17-2.12-.74-6.56-.74-6.56,0,.26,1.13,5.69,1.4,6.48.35,1,1,1.34,1.64,1.11.84-.32-.29-7.09-.14-7.41,0,0,.52,3.92,1.61,4.34s.89-2.07.31-4.23c-.54-2-1.08-6-1.82-8-.92-2.41-2.08-3.83-4.49-4A8.3,8.3,0,0,0,413.71,318.8Z" style="fill: rgb(185, 121, 100); transform-origin: 416.69px 327.728px;" id="elmpj6cdt7c7g" class="animable"></path></g><defs>     <filter id="active" height="200%">         <feMorphology in="SourceAlpha" result="DILATED" operator="dilate" radius="2"></feMorphology>                <feFlood flood-color="#32DFEC" flood-opacity="1" result="PINK"></feFlood>        <feComposite in="PINK" in2="DILATED" operator="in" result="OUTLINE"></feComposite>        <feMerge>            <feMergeNode in="OUTLINE"></feMergeNode>            <feMergeNode in="SourceGraphic"></feMergeNode>        </feMerge>    </filter>    <filter id="hover" height="200%">        <feMorphology in="SourceAlpha" result="DILATED" operator="dilate" radius="2"></feMorphology>                <feFlood flood-color="#ff0000" flood-opacity="0.5" result="PINK"></feFlood>        <feComposite in="PINK" in2="DILATED" operator="in" result="OUTLINE"></feComposite>        <feMerge>            <feMergeNode in="OUTLINE"></feMergeNode>            <feMergeNode in="SourceGraphic"></feMergeNode>        </feMerge>            <feColorMatrix type="matrix" values="0   0   0   0   0                0   1   0   0   0                0   0   0   0   0                0   0   0   1   0 "></feColorMatrix>    </filter></defs></svg>